<svg xmlns="http://www.w3.org/2000/svg" width="512" height="512" viewBox="0 0 512 512">
  <defs>
    <style>
      .cls-1 {
        fill-rule: evenodd;
      }
    </style>
  </defs>
  <path id="Заливка_цветом_1" data-name="Заливка цветом 1" class="cls-1" d="M434.119,43C445.293,44.545,465.414,63.887,467,74.951c-12.166,8.227-20.386,25.782-29.123,37.589-3.959,5.35-10.121,9.759-14.092,15.036-10.138,13.469-20.818,25.972-31,39.469l-10.334,9.4c-5.2,6.872-9.949,15.412-15.971,21.614,2.2,6.354,9.5,9.855,13.153,15.036,12.044,17.06,34.877,56.518,33.821,81.756-1.485.9-3.151,3.286-4.7,3.759-6.075,1.858-9.655-4.324-13.152-5.638-6.877-2.584-24.913-3.889-32.882-1.88-31.549,7.958-74.006,39.793-57.307,85.516,2.246,6.149,5.639,14.455,9.4,19.734,6.294,8.847,19.068,17.686,29.123,22.554,6.194,3,14.265.879,16.91,7.518,1.559,2.305.579,4.934,0,7.518l-23.486,14.1-38.518,12.216c-30.435,8.353-73.041,1.187-97.705-5.638-8.389-2.322-16.082-1.677-23.486-4.7C119.835,426.313,76.326,392.271,45.18,341.835,28.188,314.319,4.822,259.42,19.815,213.092,34.527,167.63,67.353,138.423,110,121c8.121-3.318,17.172-2.226,26.3-4.7,22.992-6.224,54.087-6.609,77.976-.94l17.85,1.88c16.923,5.094,34.673,10.845,50.731,17.855,9.056,3.953,14.68,12.87,26.305,14.1,7.961-11.821,21.53-20.584,32.881-29.132l5.637-6.578c10.808-8.15,21.129-16.289,31.942-24.433,8.626-6.5,15.7-16.087,24.426-22.554C413.844,59.24,427.392,53.194,434.119,43Zm0.939,17.855c-9.178,13.74-26.3,22.08-39.457,31.951C386.032,99.984,378.863,111,369.3,118.179c-22.789,17.1-43.231,32.4-60.126,55.444-8.3,11.317-21.178,21.553-23.487,38.529,3.785,2.492,5.384,6.265,8.455,9.4,2.8,2.858,6.537,4.712,9.4,7.518,7.219-2.6,13.261-10.958,19.729-15.036,8.675-5.469,16.585-9.927,24.426-15.975,9.766-7.534,21.277-27.923,29.123-38.529,3.958-5.35,10.126-9.757,14.092-15.036,7.9-10.507,15.592-20.335,23.487-31.011,6.909-9.343,15.388-17.635,22.547-27.252,3.589-4.821,9.306-6.423,11.274-13.156,0.236-.909.736-0.356,0-0.94C445.5,67.862,440.483,62.354,435.058,60.855ZM395.6,278.873c-3-21.614-17.77-38.762-28.184-53.565-1.931-2.744-9.623-18.536-13.153-15.036-13.456,8.715-27.37,19.407-40.4,29.132-11.716,8.747-21.767,19.5-35.7,26.313,0.535,32.935-20.645,52.231-45.095,60.142-9.7,3.14-37.644,6.629-42.276-2.819-2.35-2.7-3.165-14.147-1.879-19.734,2.972-12.909,5.905-27.454,12.213-37.589,6.333-10.174,18.706-19.51,31-23.494l17.85-2.819c7.933-4.382,12.608-18.98,16.91-27.252,9.553-18.371,22.151-33.356,31-51.685-12.715-2.8-21.041-12.112-31.941-16.916-13.886-6.118-29.7-9.939-45.095-14.1-12.554-3.389-40.119-6.791-53.549-3.759H151.34c-8.625,2.082-18.827,2.774-28.184,5.639-42.809,13.108-75.511,43.239-89.249,85.515-13.683,42.106,5.714,90.1,21.608,115.588,24.583,39.413,58.2,72.642,102.4,92.093,13,5.722,25.462,8.949,39.458,14.1,23.159,8.517,64.16,16.869,93.946,8.458,15.545-4.39,31.5-9.509,45.094-15.976V430.17c-29.072-13.518-66.222-64.26-40.4-107.13C316.2,289.531,341.948,276.265,395.6,278.873ZM140.066,148.25c38.471-.051,44.755,51.669,10.334,60.143-20.783,5.116-43.142-18.813-35.7-38.529,2.7-7.164,9.985-16.768,16.91-19.735C134.233,149.007,137.9,149.565,140.066,148.25Zm87.37,0.94c43.853-1.04,46.908,50.538,11.274,59.2-22.907,5.57-42.6-24.2-31.942-44.168C211.051,156.2,221.911,155.735,227.436,149.19Zm-84.551,13.156c-7.033,5.911-14.264,3.136-14.092,16.915l2.818,9.4c5.155,3.028,9.017,4.728,17.85,4.7,5.578-5.14,9.583-5.43,9.395-16.915q-1.41-4.229-2.819-8.458C151.951,165.616,148.721,163.156,142.885,162.346Zm87.37,0c-1.008.706-.889,0.565-2.819,0.94-4.149,6.161-8.972,8.313-9.394,18.794,6.765,5.424,7.007,12,19.729,12.217,5.189-7.066,11.974-6.808,12.213-19.734C244.4,168.635,241.587,162.766,230.255,162.346Zm46.034,62.022c-1.728,3.561-11.017,16.663-9.395,18.8,2.5,2.625,5.46,4.4,7.516,7.518a2.667,2.667,0,0,0,.939-0.94c4.865-2.242,12.261-5.979,14.092-11.277C289.324,233.565,281.841,227.09,276.289,224.368Zm-173.8,6.578c41.23,0.63,44.043,51.242,10.334,60.143-20.7,5.465-43.062-19.036-35.7-38.529,2.706-7.163,9.984-16.768,16.91-19.734C96.654,231.7,100.319,232.26,102.488,230.946Zm2.818,14.1c-8.564,7.224-14.526,1.829-14.092,19.735a17.231,17.231,0,0,1,2.818,6.578c5.466,2.763,8.817,4.707,17.85,4.7,5.854-5.4,9.635-5.721,9.395-17.855l-2.818-7.518-6.577-4.7Zm98.644,68.6c11.453,0.168,23.574.672,31.942-2.819,15.384-6.42,29.352-25.048,29.123-46.987-7.514-8.65-4.114-10.8-21.608-10.337-4.617,3.041-11.391,2.786-15.971,5.638C212.071,268.709,203.813,288.542,203.95,313.643Zm-78.915,7.518c20.516,0.338,42.054,16.63,31.942,40.408-3.914,9.2-11.106,12.569-17.85,18.795-5.646.512-13.211,2.057-18.79,0-11.247-4.149-27.659-19.057-20.668-37.589,2.695-7.144,9.93-16.836,16.911-19.735C119.22,321.944,122.869,322.486,125.035,321.161Zm2.818,14.1c-7.391,6.219-14.366,3.217-14.092,17.855,6.012,8.877,4.677,13.629,20.668,13.156,5.579-5.141,9.584-5.43,9.4-16.915l-2.818-8.458C136.92,338.526,133.69,336.067,127.853,335.257Zm79.855,38.529c40.861-.031,43.157,51.626,8.455,60.143-21.314,5.231-40.723-20.907-32.881-41.349,2.276-5.933,10.212-14.448,15.971-16.915C201.874,374.542,205.54,375.1,207.708,373.786Zm2.818,14.1c-9.449,7.99-14.6,1.847-14.092,21.614,6.122,6.613,6.834,9.711,20.668,9.4,5.854-5.4,9.635-5.721,9.4-17.855l-2.818-7.518-6.577-4.7Z"/>
</svg>
