<svg xmlns="http://www.w3.org/2000/svg" width="512" height="512" viewBox="0 0 512 512">
  <defs>
    <style>
      .cls-1 {
        fill-rule: evenodd;
      }
    </style>
  </defs>
  <path id="Заливка_цветом_1" data-name="Заливка цветом 1" class="cls-1" d="M139,35c48.9,0.05,66.669,39.113,88,67,9.119,11.922,23.084,22.2,29,37,5.512,13.789,1.463,30.046-2,42,12.957,8.992,34.455,28.761,24,54-4.537,10.953-17.025,19.025-25,27l-24,24,1,1c5.556,7.935,17.858,22.149,27,26,24.387-34.641,82.586-54.238,111-8,13.24,21.545,12.547,58.116,19,85,4.4,18.342,18.734,64.435,8,79-10.317,14-30.918,10.734-50,6-40.238-9.982-117.235-13.866-138-42l-10-20c-13.168-43.616,26.267-56.025,36-78l-17-17-14-14c-22.454-37.235,37.455-62.373,47-84-6.732-4.936-11.177-14.635-20-17-26.707,20.4-61.84-17.66-74-27-29.863-22.936-98.954-65.741-56-122C109.088,40.788,122.667,42.749,139,35Zm-1,30c-8.67,5.96-19.125,10.534-22,22-2.845,11.345,4.494,18.465,9,23,15.4,15.5,33.513,28.623,51,42,11.411,8.729,19.565,24.9,39,25a196.085,196.085,0,0,0,14-14v-9L176,90C166.069,77.125,161.456,64.872,138,65ZM314,306c-24.206,16.482-41.783,36.784-62,57l-22,21c-5.926,8.941-2.273,25.354,3,32,6.909,8.708,25.434,7.947,38,11l95,19-17-84c-3.621-15.668-2.8-35.585-11-47C333.143,308.243,326.192,305.747,314,306Z"/>
</svg>
