<svg xmlns="http://www.w3.org/2000/svg" width="512" height="512" viewBox="0 0 512 512">
  <defs>
    <style>
      .cls-1 {
        fill-rule: evenodd;
      }
    </style>
  </defs>
  <path id="Заливка_цветом_1" data-name="Заливка цветом 1" class="cls-1" d="M132.094,8q1,16.494,2,32.992c4.144,0.828,6.859,3.318,10,5h2v1h2v1h2v1h2v1h2v1h2v1h2l1,2h2v1l6,2q0.5,1,1,2l6,2,1,2,4,1q0.5,1,1,2l4,1,1,2h2q0.5,1,1,2h2l1,2,4,1v1l3,1,1,2h2q0.5,1,1,2h2l2,3h2l1,2h2l2,3h2q0.5,1,1,2h2l2,3h2l3,4h2l3,4h2l3,4h2l5,6h2l8,9h2l1,2,6,5q-0.5,1.5-1,3l-3,2v2h-1l-1,4h-1c-1.667,3.878-1.562,16.088,0,19.995h1v3l2,1v2c1.805,2.581,3.784,1.654,5,6L8.125,422.9c0.844,1.135-.127.146,1,1l78.98,79.98c1.134-.844.145,0.127,1-1L278.057,314.923l39.99-40.99,7-6,17-18h2c3.552,6.373,10.891,9.049,21,9h6v-1h3v-1l4-1v-1h2v-1c1.8-1.43,2.391-2.252,5-3l6,7h1v2l9,8v2l6,5v2l2,1v1l2,1v2l4,3v2q2,1.5,4,3v2l3,2v2l2,1v2l3,2v2l2,1v2l3,2v2l2,1v2l2,1v2l2,1v2l2,1q0.5,2,1,4h1l1,3,2,1v2h1v2l2,1q0.5,2,1,4l2,1q1,3,2,6l2,1v2h1v2h1v2h1v2l2,1v2h1v2h1v2h1v2c2.638,4.938,6.614,9.918,8,16l32.992,2q-1.5-15.493-3-30.992h-1v-6h-1v-5h-1v-5h-1v-4h-1v-4l-10-33.991h-1v-2h-1q-0.5-3-1-6h-1v-2h-1v-3h-1q-0.5-2-1-4h-1v-3h-1v-2h-1v-3h-1v-2h-1q-0.5-2-1-4h-1v-2h-1v-2h-1v-2h-1v-2h-1v-2h-1v-2h-1v-2h-1v-2h-1v-2h-1v-2l-2-1q-1-3-2-6l-2-1q-0.5-2-1-4l-2-1v-2h-1v-2h-1q-0.5-1.5-1-3l-2-1q-0.5-2-1-4l-2-1v-2l-2-1v-2l-3-2v-2l-2-1v-2h-1a8.186,8.186,0,0,1-2-4c8-4.562,13.239-20.411,8-31.992h-1v-2l-2-1v-2l-5-4-12-13L371.034,91.979c-9.647-9.647-17.1-21.6-31.992-25.993-4.873-1.438-17.76,2.5-19.995,4v1c-2.352,1.9-3.683,4.071-7,5-2.464-3.857-7.193-5.427-11-8q-0.5-1-1-2l-3-1v-1l-4-1q-0.5-1-1-2h-2l-1-2h-2v-1h-2q-0.5-1-1-2l-4-1-1-2-6-2C253.3,38.555,229.748,29.539,206.075,21h-4V20h-3V19h-4V18h-4V17h-4V16h-4V15h-4V14h-5V13h-5V12l-13-1C149.548,9.09,140.183,8.135,132.094,8Zm155.96,185.953,22,22.994c2.838,2.839,6.782,4.533,8,9-3.028,1.763-4.618,4.619-7,7l-16,16-9,8-41.989,42.989-37.991,36.991L137.092,406.9,109.1,433.893q-2.5,3-5,6c-4.771,4.771-11.539,9.066-15,15-1.134-.844-0.145.127-1-1-5.207-3-8.837-8.838-13-13q-6-6-12-12c-2.08-2.082-4.451-3.33-6-6L228.07,252.938l35.99-36.99,6-5,16-17h2Z"/>
</svg>
