<svg xmlns="http://www.w3.org/2000/svg" width="512" height="512" viewBox="0 0 512 512">
  <defs>
    <style>
      .cls-1 {
        fill-rule: evenodd;
      }
    </style>
  </defs>
  <path id="Заливка_цветом_1" data-name="Заливка цветом 1" class="cls-1" d="M249,375l20,1v1l22,2v1l15,2v1l8,1v1h4v1l7,1v1h3v1h3v1h3v1h3v1h3v1h3v1h2v1h3v1h3l2,3,2,1v8c-1.719,1.127-1.355.633-2,3-3.208.562-5.51,1.472-9,0v-1h-2v-1h-3v-1l-6-1v-1h-2v-1h-3v-1h-4v-1h-3v-1h-3v-1l-8-1v-1l-8-1v-1h-5c-4.775-1.478-12.076-2.582-17-4h-8c-8.769-2.5-20.765-2-32-2-33.285,0-61.5,4.317-86,13l-10,2c-9.285,3.638-21.908,11.7-22-7l17-8,6-1v-1h3v-1h3v-1h3v-1h4c21.131-7.585,46.813-10.534,75-11,0.287-11.544-.371-23.98-3-33q-0.5-6.5-1-13h-1q-0.5-5-1-10h-1q-0.5-4.5-1-9h-1v-4h-1q-0.5-3.5-1-7h-1v-3h-1v-3h-1v-3h-1v-3h-1v-3h-1v-2h-1c-2.137-4.833-2.3-10.857-6-14-2.652,2.424-6.847.817-11,2-7.555,2.151-20.561,1.093-27-1l-13-3v-1l-4-1v-1h-2l-1-2-4-1-3-4h-2q-0.5-1-1-2l-4-3v-2l-4-3v-2l-2-1v-2l-2-1v-2h-1q-0.5-2-1-4h-1v-3h-1v-2h-1v-3h-1v-2h-1v-4h-1v-3h-1v-5h-1v-5h-1v-8h-1V184h-1c-1.014-3.671.637-8.777,1-11V157h1v-5h1q0.5-2,1-4l5-4q0.5-1,1-2h2q0.5-1,1-2h3v-1c1.512-.943,10.809-0.706,13,0l31,10v1h2v1h3v1l4,1v1h2v1h2v1h2v1h2q0.5,1,1,2l4,1q0.5,1,1,2h2l2,3h2l2,3h2l2,3,7,6v2l3,2v2l2,1v2l2,1q1,3,2,6h1v2h1q0.5,3.5,1,7h1v4h1q0.5,7.5,1,15h-1v9h-1v4h-1v4h-1v3h-1v3h-1v3h-1v2c-1.86,3.592-3.585,4.364-4,10,3.979,3.556,4.777,10.509,7,16h1v3h1q1,3.5,2,7c1.139-1.139.4,0,1-2h1q0.5-3,1-6h1v-4h1v-2h1v-3h1v-3l13-29h1v-1h-1q-0.5-1.5-1-3h-1v-3h-1v-3h-1v-3h-1v-3h-1q-0.5-4.5-1-9c-2.948-9.592-4.083-23.688-1-34v-5c5.92-18.7,14.589-31.783,29-42l2-3h2l1-2h2v-1h2l1-2h2v-1h2v-1h2v-1h2v-1l6-2v-1h3v-1h2v-1l28-8h6v-1l12-1v-1h8v-1l18-1v1h4v1h3v1l3,1,1,2h2l1,3,3,2v2h1l1,4h1c0.8,2.128.93,15.732,0,19h-1q-0.5,7.5-1,15h-1v6h-1q-0.5,5-1,10h-1q-0.5,4-1,8h-1v4h-1v3h-1v3h-1v3h-1v3h-1v2h-1v3h-1l-1,4h-1v3h-1v2h-1v2l-2,1-2,6h-1l-1,3-2,1v2l-3,2v2l-5,4-7,8h-2l-2,3h-2l-1,2-4,1-1,2-5,1v1h-2v1h-3v1h-3v1h-3v1h-4c-9.039,2.874-24.879,2.748-34,0h-5v-1l-8-1v-1l-6-1v-1c-2.038-.257-1.189.458-2,1-2.751,2.433-3.275,6.47-5,10h-1v3h-1l-1,4h-1v3h-1v2h-1q-0.5,3-1,6h-1v3h-1v3h-1v3h-1v3h-1q-1,6-2,12h-1v5h-1v5h-1v7h-1c-1.559,5.528,1.91,18.184,3,22Q247.5,356,249,375Zm26-143,17,4h9v1h7v-1h9v-1l8-1v-1h2v-1h3v-1l4-1v-1h2v-1l3-1,1-2h2l3-4,8-7v-2l3-2v-2l2-1v-2l2-1,1-4h1v-2h1l2-6h1v-3h1v-2h1v-3h1v-3h1v-3h1v-3h1v-4c4.69-13.261,7.935-32.5,8-50-3-1.973-.941-2.825-5-4-1.508-1.359-9.86-1.9-13-1v1h-9v1h-7v1h-6v1h-5v1h-4v1h-5v1h-3v1h-4v1h-3v1h-3v1h-3v1h-3v1l-4,1v1l-9,3-1,2-4,1-1,2h-2l-2,3h-2l-7,8-5,4v2l-2,1-1,4-2,1v2h-1v3h-1v2h-1c-1.756,4.143-5.023,25-3,32l4,17h1v-1c3.239-1.943,3.845-4.946,6-8l3-2v-2l4-3v-2l6-5v-2l4-3,8-9h2l5-6h2l3-4h2l2-3c3.588-2.5,8.252-3.694,11-7a34.218,34.218,0,0,1,8,1c1.418,3.134,2.752,4.394,3,9h-1v2l-3,2v1h-2l-1,2-3,1v1h-2l-2,3h-2l-2,3h-2l-4,5h-2l-9,10-5,4v2l-5,4v2l-4,3v2l-3,2v2l-2,1v2l-2,1v2h-1C275.082,229.36,275.285,229.758,275,232ZM134,155c-1.913,9.938-4.152,28.933-1,40v8l4,17h1v2h1v3h1q0.5,2,1,4h1q0.5,2,1,4l2,1v2l3,2v2l2,1,3,4h2l2,3h2v1h2v1h2v1h2v1h2v1h4v1h4v1h9c5.077,1.388,12.406.05,18-1a28.684,28.684,0,0,0-4-9l-2-1q-0.5-2-1-4l-2-1v-2l-3-2v-2l-3-2v-2l-3-2v-2l-4-3v-2l-12-11-5-6h-2l-2-3h-2q-0.5-1-1-2h-2v-1l-3-2c-0.585-.74.74-0.6-1-2v-5c2.679-2.285,2.245-4.421,7-5v-1l6,2q0.5,1,1,2h2q0.5,1,1,2h2l3,4h2l9,10,9,8v2l4,3v2l3,2v2l3,2v2l2,1q0.5,1.5,1,3h1v2l2,1v2l2,1v2c0.406,0.61,1.336.769,2,2h1v-2c3.793-3.826,5.537-24.536,3-32h-1v-3h-1q-0.5-2-1-4h-1q-1-3-2-6l-3-2v-2l-4-3-5-6h-2l-2-3h-2q-0.5-1-1-2l-3-1v-1l-6-2v-1h-2v-1h-2v-1l-6-2v-1h-3v-1h-2v-1l-6-1v-1l-6-1v-1l-7-1v-1A25.169,25.169,0,0,0,134,155Z"/>
</svg>
