<svg xmlns="http://www.w3.org/2000/svg" width="512" height="512" viewBox="0 0 512 512">
  <defs>
    <style>
      .cls-1 {
        fill-rule: evenodd;
      }
    </style>
  </defs>
  <path id="Заливка_цветом_1" data-name="Заливка цветом 1" class="cls-1" d="M372,10c65.193-.837,102.656,32.984,122,78q0.5,3,1,6c7.989,20.491,7.338,51.527,0,72v4h-1q-0.5,2.5-1,5h-1v2h-1v3h-1l-2,6h-1l-1,4-2,1-1,4-2,1v2l-2,1v2l-3,2v2l-4,3v2l-8,7-5,6h-2l-3,4h-2l-2,3h-2l-1,2-3,1v1l-4,1-1,2-4,1v1l-4,1v1h-3v1h-2v1h-3v1h-2v1l-6,1v1l-8,1c-8.775,2.849-18.981,3-31,3H364c-4.326-1.233-9.758-2.738-15-3l-3,4h-2l-3,4h-2l-1,2h-2l-1,2-4,1-1,2-9,3v1h-2v1l-10,2v1h-3v1h-6c-9.261,2.74-22.528,1.911-33,1l-4-5h-1v-2h-1c-1.834-3.341-2-6.713-2-12h1q0.5-2.5,1-5l7-6v-2l2-1,1-3h1v-2l2-1,1-4h1v-2h1l3-9h1v-2h1l3-11c-2.693-1.757-3.182-4.309-5-7l-2-1v-2l-2-1v-2h-1l-1-4-2-1v-2h-1l-1-4h-1v-3h-1v-2h-1v-3h-1v-2h-1v-3h-1v-3h-1v-4h-1v-4h-1v-5h-1v-7c-3.222-11.336-.8-29.931,2-39q1-6,2-12h1V93h1q0.5-3,1-6h1V85h1V82h1q1-3,2-6h1q0.5-2,1-4l2-1q0.5-2,1-4l2-1q0.5-2,1-4l3-2V58l4-3V53l8-7,8-9h2l2-3h2l2-3h2l1-2,4-1,1-2,6-2V23h2V22l6-2V19l6-1V17h3V16h2V15l8-1V13h5V12h5V11h10V10Zm-1,19v1h-8v1h-5v1h-4v1h-4L327,43v1l-3,1-1,2h-2l-2,3h-2l-4,5c-16.488,11.931-26.2,32.378-33,54q-0.5,5.5-1,11h-1v12c0,14.344,2.02,24.089,6,34v3h1v2h1l3,9,2,1,1,4h1l1,3,2,1v2l2,1v2l4,3v2h1c0.962,1.239.711,1.94,2,3,0.141,7.455-2.048,11.1-4,16q-1,4.5-2,9h-1l-1,4h-1v3l-13,22h13c2.572-2.206,6.384-.766,10-2v-1h3v-1h3v-1h3v-1l6-2v-1l4-1,1-2h2l1-2h2l8-9c1.217-1.189,2.92-1.656,4-3l6-1v1l12,2v1l19,1v1l3-1h12v-1h5v-1h5v-1h3v-1h4v-1h2v-1l6-1v-1l6-2v-1h2v-1l4-1,1-2h2l1-2h2l1-2h2l2-3h2l4-5,5-3v-2l7-6v-2l3-2v-2l3-2,1-4,2-1q4.5-10.5,9-21,0.5-4,1-8c7.046-21.772,1.136-48.281-7-64q-1-3.5-2-7l-2-1q-0.5-2-1-4h-1l-1-3-2-1V72l-2-1-1-3-6-5V61l-2-1-2-3h-2l-5-6h-2l-2-3h-2l-1-2-3-1V44l-4-1-1-2h-2V40h-3V39h-2V38l-4-1V36l-5-1V34l-7-1C395.984,29.64,384.864,28.978,371,29ZM240,261l-4,12h-1v2h-1v3h-1q-0.5,2-1,4h-1c-1.6,4.446,1.85,23.433,3,26h1v2l2,1v2h1l3,4h2l1,2h2v1h2v1h2v1h3v1h2v1h3v1h2v1h3v1h2v1h3v1l4,1v1h3v1l4,1v1h3v1l6,2v1h2v1l4,1,1,2,4,1,2,3h2l8,9,5,4v2l2,1,1,3h1v2l2,1v2h1l1,4h1q2.5,8.5,5,17v91h-1v3h-1v2h-1v2l-2,1v2l-4,3v1c-13.433,9.516-48.275,6-71,6H77c-30.719,0-57.718,4.275-66-19-3.027-8.507-1-31.824-1-43,0-12.95-2.006-35.466,1-46v-7c5.155-17,12.07-29.708,25-39l3-4h2l1-2,4-1,1-2,4-1v-1l4-1v-1h3v-1h2v-1l4-1v-1l6-1v-1h2v-1h3v-1h2v-1l6-1v-1h2v-1l5-1v-1h2l1-2h2l1-2h2l1-2,4-3v-2l2-1v-3h1v-2h1v-3h1q0.5-9,1-18h-1v-2h-1v-2h-1v-2h-1q-2.5-7.5-5-15l-9-3v-1l-5-4v-2l-2-1v-2H83l-1-6H81v-4c-0.78-2.474-2.171-10.009-1-14h1v-5h1l3-9H84l-1-8H82v-5c-1.934-6.5-2-14.182-2-23V163l5-23c-3.756-.679-6.12-2.4-7-6-2.049-1.746-2.061-4.051-2-8,1.97-1.729.852-2.358,2-4h1c3.121-3.72,6.261-4.948,12-6-0.926-3.728-3.185-5.116-4-8l1-7h1c6.118-11.655,15.946-5.479,29-5-0.669-5.986-1.121-7.883,1-13,1.875-1.023,4.111-3.245,6-4h4V78h4V77h4V76l14-1V74h9c14.507-.013,23.7,1.313,34,5h4v1h2v1h3v1l6,2v1h2v1l4,1,1,2h2l1,2h2l3,4h2l6,7,3,2v2l4,3v2l2,1v2l2,1q0.5,2,1,4h1q1,3,2,6h1q3,10.5,6,21,0.5,23,1,46v22h1l1,4h1c2.837,6.58,2.88,22.428,0,29h-1l-1,4-2,1v2l-4,3-1,2c-1.675,1.155-2.271.013-4,2h-5ZM141,94q0.5,2,1,4l2,1q0.5,5,1,10c-2.977,2.68-2.087,5.706-7,7-2.938,2.7-14,.2-18,0a40.116,40.116,0,0,1-1,9c-1.253.659-1.388,1.6-2,2h-2q-0.5,1-1,2l-9,3c-0.034,9.4-1.858,15.018-4,22q-0.5,5-1,10H99v12c0,8.266.087,15.077,2,21v4h1v3h1v3h1v3h1v3h1c0.944,3.436-2.666,8.476-4,10l-2,1v3c-1.952,5.111-.684,9.795,1,14a27.975,27.975,0,0,1,12,0c1.114,2.127,3.143,4.626,4,7l4,18h1v2h1l2,6h1q0.5,3,1,6h1c1.82,5.709-1.594,26.3-3,30h-1v2h-1c-1.3,3.844,1.22,7.916,2,10q1,4.5,2,9h1v2l10,11,4,1,1,2,5,1v1h2v1h3v1l10,1v1c7.042,1.988,24.6-2.861,28-5v-1l3-1,1-2h2l4-5,3-2v-2l3-2q0.5-2,1-4h1l2-6h1v-3h1v-3h1v-2h1c0.581-2.074-2.521-8.444-3-10-0.8-2.588-2.2-24.671-1-28h1l2-6h1v-2h1v-2h1v-3h1v-2h1q2.5-10,5-20a13.3,13.3,0,0,0,4-3l10,1q0.5-2.5,1-5h1c1.088-3.51-.938-11.239-2-13l-2-1v-2h-1v-6h-1V175c0.209-2.423,1.982-5.465,1-9h-1V151l-4-17h-1v-2h-1v-3h-1v-2l-2-1q-0.5-2-1-4l-3-2v-2l-4-3-7-8h-2q-0.5-1-1-2h-2q-0.5-1-1-2l-4-1v-1l-4-1V99h-3V98h-2V97l-7-1V95h-4c-4.243-1.4-20.278-4.9-27-3v1Zm174,19v-2l-2-1c-1.4-3.353.582-8.794,1-11,1.066-.584,1.6-1.763,2-2h2V96h98c9.931,0,28.659-2.835,31,5,3.36,3.186.9,7,0,11l-3,1v1h-2v1H319v-1Zm5,21h74c16.514,0,35.088-.377,50,1,1.873,3.146,3.7,2.838,4,8h1q-0.5,3-1,6a21.9,21.9,0,0,0-5,4H361c-14.582,0-32.111,1.314-45-1-0.584-1.063-1.764-1.6-2-2v-2h-1v-9l4-3v-1h3v-1ZM121,353v-2c-4.537-2.618-10.748-12.121-12-18l-6,2-1,2-5,1v1l-4,1v1H90v1l-4,1v1H83v1H81v1l-6,1v1H73v1H70v1l-4,1v1H64v1H61v1H59l-1,2-6,2-1,2H49l-2,3H45l-2,3-4,3v2l-3,2v2H35l-2,6H32c-5.57,12.8-3,44.768-3,63v34l2,1v2l4,1v1H242c21.4,0,45.237.811,65-1l2-3h1v-3l2-1V399c-1.958-2.225-.86-8.771-2-12h-1v-3h-1v-2h-1v-3l-2-1-1-4-2-1v-2l-4-3-6-7h-2l-2-3-4-1v-1l-6-2v-1h-3v-1h-3v-1l-4-1v-1h-3v-1h-2v-1l-5-1v-1h-3v-1h-2v-1l-6-1v-1l-6-2v-1h-2v-1l-4-1-1-2h-2v-1l-3-1v1c-1.988,1.762-.828,2.178-2,4l-2,1v2h-1v2l-2,1v2l-3,2v2l-7,6-2,3h-2l-2,3h-2l-1,2-4,1v1l-6,2v1h-3v1c-3.978,1.557-22.668,4.821-29,3v-1l-10-1v-1l-9-2v-1l-6-2v-1h-2l-1-2h-2l-1-2h-2v-1C125.7,356.086,124.286,353.919,121,353Z"/>
</svg>
